<svg xmlns="http://www.w3.org/2000/svg" xmlns:xlink="http://www.w3.org/1999/xlink" xml:space="preserve" viewBox="0 0 1296.59 548.85"><defs><radialGradient xlink:href="#a" id="d" cx="658.73" cy="315.47" r="457.5" fx="658.73" fy="315.47" gradientTransform="matrix(1 0 0 .166 0 263.02)" gradientUnits="userSpaceOnUse"/><radialGradient xlink:href="#a" id="e" cx="658.73" cy="315.47" r="457.5" fx="658.73" fy="315.47" gradientTransform="matrix(1 0 0 .166 0 263.02)" gradientUnits="userSpaceOnUse"/><radialGradient xlink:href="#b" id="c" cx="0" cy="990.17" r="648.29" fx="0" fy="990.17" gradientTransform="matrix(2.19 0 0 1.855 0 -1220.34)" gradientUnits="userSpaceOnUse"/><linearGradient id="b"><stop offset="0" stop-color="#191938"/><stop offset="1" stop-color="#112"/></linearGradient><linearGradient id="a"><stop offset="0" stop-color="#fff"/><stop offset="1" stop-color="#fff"/></linearGradient><path id="g" d="M374.82-106.57h966.45v508.95H374.82z"/><path id="f" d="M1008.19 200.08h4141.89v335.2H1008.19z"/></defs><path fill="url(#c)" d="M0 67.45h1296.59V616.3H0z" paint-order="stroke fill markers" transform="translate(0 -67.45)"/><g fill="url(#d)" transform="matrix(.632 0 0 .632 231.75 188.93)"><path fill="url(#e)" d="M228.13 334.5h-26.9v26.88l30.16 30.16h83.94V353.5h-68.19Zm3.26-95.1-30.15 30.16v26.9h26.9l19-19.02h68.2v-38.03zm-3.26 57.06v38.03h96.72v-38.03z" color="#000"/><text xml:space="preserve" fill="#fff" stroke-linecap="round" stroke-linejoin="round" stroke-width="15" font-family="Gill Sans MT" font-size="240" font-weight="700" paint-order="stroke fill markers" style="text-align:center;white-space:pre;shape-inside:url(#f)" transform="matrix(.633 0 0 .633 -1216.53 105.86)"><tspan x="2455.13" y="422.78"><tspan font-family="Azeret Mono">stimtest</tspan></tspan></text></g><path fill="none" stroke="#fff" stroke-linecap="round" stroke-linejoin="round" stroke-width="9.92" d="M288.28 117.01h720.03a48 48 0 0 1 48 48v75.75a48 48 0 0 1-48 48h-6a216.56 216.56 0 0 0-91.5 20.28l-45.57 21.25a4.52 4.52 0 0 1-4.56-7.77l7.93-5.7a15.48 15.48 0 0 0-9.05-28.06H288.28a48 48 0 0 1-48-48v-75.75a48 48 0 0 1 48-48z" paint-order="stroke fill markers"/><text xml:space="preserve" fill="none" stroke="#fff" stroke-linecap="round" stroke-linejoin="round" stroke-width="31.3" font-family="Azeret Mono" font-size="64" font-weight="700" paint-order="stroke fill markers" style="text-align:center;white-space:pre;shape-inside:url(#g)" transform="matrix(.633 0 0 .633 105.45 219.3)"><tspan x="546.05" y="-47.18"><tspan fill="#fff" stroke="none">Experiment Your </tspan></tspan><tspan x="379.65" y="32.82"><tspan fill="#fff" stroke="none">Website&apos;s Accessibility</tspan></tspan></text></svg>