<?xml version="1.0" standalone="no"?>
<!DOCTYPE svg PUBLIC "-//W3C//DTD SVG 20010904//EN"
 "http://www.w3.org/TR/2001/REC-SVG-20010904/DTD/svg10.dtd">
<svg version="1.0" xmlns="http://www.w3.org/2000/svg"
 width="1080.000000pt" height="1080.000000pt" viewBox="0 0 1080.000000 1080.000000"
 preserveAspectRatio="xMidYMid meet">
<metadata>
Created by potrace 1.14, written by Peter Selinger 2001-2017
</metadata>
<g transform="translate(0.000000,1080.000000) scale(0.100000,-0.100000)"
fill="#000000" stroke="none">
<path d="M2081 9730 l-1071 -1071 0 -955 0 -954 956 0 956 0 675 675 675 675
2419 0 c1330 0 2419 3 2420 8 3 24 4 2669 1 2680 -3 9 -608 12 -2982 12
l-2978 0 -1071 -1070z"/>
<path d="M2921 6728 c-5 -13 -7 -26 -4 -31 4 -7 7 -143 3 -162 -1 -5 -1 -14 0
-20 1 -5 1 -39 0 -75 -1 -36 -1 -71 -1 -77 1 -12 1 -58 1 -148 0 -22 1 -88 3
-147 1 -60 -2 -108 -6 -108 -5 0 -5 -4 -2 -10 3 -5 6 -36 5 -67 -1 -72 -1 -81
3 -118 1 -16 -1 -42 -5 -57 -4 -17 -3 -28 3 -28 6 0 8 -4 5 -8 -6 -10 -8 -109
-3 -145 2 -15 0 -30 -5 -33 -4 -3 -6 -10 -2 -15 3 -5 5 -52 4 -104 0 -52 -1
-101 -1 -107 0 -7 1 -84 2 -171 1 -87 -1 -160 -4 -163 -3 -3 -2 -17 2 -31 4
-13 4 -51 1 -84 -3 -32 -2 -66 2 -73 5 -8 4 -17 -2 -21 -6 -4 -7 -11 -4 -17 9
-14 8 -124 -1 -138 -3 -5 -1 -10 5 -10 6 0 9 -4 6 -8 -3 -5 -5 -33 -5 -63 -2
-193 -2 -170 -1 -304 1 -60 1 -116 1 -122 -1 -10 -199 -13 -956 -13 l-955 0 0
-954 0 -955 1071 -1070 1071 -1071 2981 2 2981 3 0 1345 0 1345 -2421 3 -2421
2 -673 673 -673 672 3432 3 3432 2 0 1350 0 1350 -3430 0 -3431 0 -8 -22z"/>
</g>
</svg>
